<svg xmlns="http://www.w3.org/2000/svg" width="121.226" height="36.116" viewBox="0 0 121.226 36.116">
  <g id="Group_2085" data-name="Group 2085" transform="translate(-0.097 -0.017)">
    <path id="Path_43" data-name="Path 43" d="M223.841,40.295h-7.719V33.6H212.7V50.411h3.422V43.717h7.719v6.695h3.422V33.6h-3.422Z" transform="translate(-159.496 -25.194)" fill="#13324b"/>
    <path id="Path_44" data-name="Path 44" d="M363.841,43.817,355.5,33.6h-3V50.411h3.422V39.82l8.318,10.591h3V33.6h-3.4Z" transform="translate(-264.375 -25.194)" fill="#13324b"/>
    <g id="Group_32" data-name="Group 32" transform="translate(36.692 8.006)">
      <path id="Path_45" data-name="Path 45" d="M282.447,43.968a5.454,5.454,0,0,1-.45-1.774v-.4a2.425,2.425,0,0,1,.025-.425V41.3a2.155,2.155,0,0,1,.075-.425v-.025a5.017,5.017,0,0,1,3.822-3.872c.025,0,.075-.025.1-.025a1.941,1.941,0,0,1,.4-.05h.1c.125,0,.275-.025.4-.025a5.554,5.554,0,0,1,2.173.45Zm9.217-.4a4.741,4.741,0,0,1-1.2,1.873,1.088,1.088,0,0,1-.175.15l-.075.075a5.031,5.031,0,0,1-5.346.7l6.62-6.645h0l1.524-1.524.974-.974s.125-.075-.9-1.1a11.97,11.97,0,0,0-1.674-1.449,8.349,8.349,0,0,0-12.29,4.247c-.025.05-.025.1-.05.15a3.856,3.856,0,0,0-.175.575c-.05.15-.075.325-.125.475-.025.075-.025.175-.05.25-.025.2-.075.425-.1.624v.125a6.533,6.533,0,0,0-.025.7v.025h0a8.374,8.374,0,0,0,16.487,2.123l.1-.4h-3.522Z" transform="translate(-245.627 -33.052)" fill="#13324b"/>
      <path id="Path_46" data-name="Path 46" d="M422.872,43.968a5.461,5.461,0,0,1-.45-1.774v-.4a2.419,2.419,0,0,1,.025-.425V41.3a2.155,2.155,0,0,1,.075-.425v-.025a5.017,5.017,0,0,1,3.822-3.872c.025,0,.075-.025.1-.025a1.942,1.942,0,0,1,.4-.05h.1c.125,0,.275-.025.4-.025a5.553,5.553,0,0,1,2.173.45Zm9.192-.4a4.741,4.741,0,0,1-1.2,1.873,1.084,1.084,0,0,1-.175.15l-.075.075a5.031,5.031,0,0,1-5.346.7l6.62-6.645h0l1.524-1.524.974-.974s.125-.075-.9-1.1a11.974,11.974,0,0,0-1.674-1.449,8.349,8.349,0,0,0-12.29,4.247c-.025.05-.025.1-.05.15a3.863,3.863,0,0,0-.175.575c-.05.15-.075.325-.125.475-.025.075-.025.175-.05.25-.025.2-.075.425-.1.624v.125a6.533,6.533,0,0,0-.025.7v.025h0a8.374,8.374,0,0,0,16.486,2.123l.1-.4h-3.522Z" transform="translate(-350.956 -33.052)" fill="#13324b"/>
      <path id="Path_47" data-name="Path 47" d="M158.99,44.29a5.113,5.113,0,0,1-3.722,1.6,5.183,5.183,0,1,1,3.6-8.893l2.5-2.5a8.549,8.549,0,0,0-6.1-2.5,8.718,8.718,0,1,0,6.195,14.813Z" transform="translate(-146.6 -32)" fill="#13324b"/>
    </g>
    <path id="Path_48" data-name="Path 48" d="M295.8,14.046h-3.3L297.271,9.3h.075l4.8,4.746H298.87l-1.549-1.574Z" transform="translate(-219.363 -6.964)" fill="#13324b"/>
    <g id="Group_33" data-name="Group 33" transform="translate(0.096 0.017)">
      <path id="Path_49" data-name="Path 49" d="M261.06,126.1h1.549l-2.323-3.072,2.2-2.9h-1.5l-.8,1.124c-.35.5-.6.874-.624.874h0s-.275-.35-.649-.874l-.849-1.149h-1.524l2.223,2.9-2.373,3.1h1.5l.874-1.2c.45-.575.7-.924.7-.924h0s.25.35.674.924Zm-6.62-5.97h-1.224v3.347c0,1.124-.475,1.624-1.4,1.624-.949,0-1.4-.525-1.4-1.624v-3.347h-1.274V123.5a2.661,2.661,0,1,0,5.321,0v-3.372Zm-9.242,3.7H243.25l.525-1.324c.225-.525.425-1.049.45-1.049h.025s.225.55.45,1.049Zm.425,1.074.475,1.2h1.324l-2.5-5.97h-1.4l-2.5,5.97h1.324l.475-1.2Zm-7.719,1.2,2.323-5.97h-1.349L237.8,123.1c-.425,1.124-.625,1.7-.625,1.724h-.025c0-.025-.225-.6-.649-1.749l-1.074-2.948h-1.4l2.323,5.97Zm-6.944-2.273h-1.948l.525-1.324c.225-.525.425-1.049.45-1.049h.025s.225.55.45,1.049Zm.45,1.074.475,1.2h1.324l-2.5-5.97h-1.4l-2.5,5.97h1.324l.475-1.2Zm-10.117-1.848V121.2h1.049c.724,0,1.1.325,1.1.949s-.425.9-1.1.9Zm2.148,3.048h1.474l-1.474-2.323a1.663,1.663,0,0,0,1.274-1.674c0-1.224-.9-1.973-2.448-1.973h-2.223v5.97h1.249V124h.9Zm-5.7-4.871v-1.1H212.5v1.1h2V126.1h1.249v-4.871Z" transform="translate(-159.443 -90.104)" fill="#13324b"/>
      <path id="Path_50" data-name="Path 50" d="M13.012,94.644a16.381,16.381,0,0,0,10.766-4.321l6.645,6.395s-6.919,8.068-18.51,4.047A17.33,17.33,0,0,1,1.8,92.321,15.163,15.163,0,0,1,.1,87.7a16.137,16.137,0,0,0,12.914,6.944" transform="translate(-0.096 -65.797)" fill="#13324b"/>
      <path id="Path_51" data-name="Path 51" d="M28.923,11.578a9.319,9.319,0,0,0-13.589,12.74C4.069,21.795,2.72,5.758,15.459,1.286c12.39-4.371,19.684,3.947,19.684,3.947Z" transform="translate(-4.817 -0.017)" fill="#13324b"/>
    </g>
  </g>
</svg>
