<svg id="file-download-87" xmlns="http://www.w3.org/2000/svg" width="15.5" height="15.5" viewBox="0 0 15.5 15.5">
  <path id="Path_4145" data-name="Path 4145" d="M11.229,0V4.521h1.938L10.583,7.75,8,4.521H9.938V0Z" transform="translate(-2.833)" fill="#13324b"/>
  <path id="Path_4146" data-name="Path 4146" d="M14.854,5H11.625V6.292h2.583v4.521H1.292V6.292H3.875V5H.646A.645.645,0,0,0,0,5.646V16.625a.645.645,0,0,0,.646.646H14.854a.645.645,0,0,0,.646-.646V5.646A.645.645,0,0,0,14.854,5ZM9.688,14.687H5.813V13.4H9.688Z" transform="translate(0 -1.771)" fill="#13324b"/>
</svg>
